<svg xmlns="http://www.w3.org/2000/svg" viewBox="0 0 64 64">
  <defs>
    <linearGradient id="g" x1="0%" y1="0%" x2="100%" y2="100%">
      <stop offset="0%" stop-color="#6366f1" />
      <stop offset="100%" stop-color="#0ea5e9" />
    </linearGradient>
  </defs>
  <rect width="64" height="64" rx="18" fill="url(#g)" />
  <path d="M22 18c-2.8 0-5 2.2-5 5 0 3.7 1.9 6.4 3.6 8.8 1.3 1.8 2.4 3.4 2.4 5.3V42c0 4.4 3.6 8 8 8h2c4.4 0 8-3.6 8-8v-4.9c0-1.9 1.1-3.5 2.4-5.3C45.1 29.4 47 26.7 47 23c0-2.8-2.2-5-5-5-2 0-3.5.8-4.8 1.6-1.6 1-2.7 1.7-5.2 1.7s-3.6-.7-5.2-1.7C25.5 18.8 24 18 22 18Z" fill="#fff"/>
  <path d="M26 43c0 2.2 1.8 4 4 4h4c2.2 0 4-1.8 4-4v-6.5c0-1.4.6-2.6 1.5-3.9-1.2.4-2.5.9-4.5.9-1.3 0-2.3 1-2.3 2.3V47h-1.4V35.8c0-1.3-1-2.3-2.3-2.3-2 0-3.3-.5-4.5-.9.9 1.3 1.5 2.5 1.5 3.9V43Z" fill="#e0e7ff"/>
</svg>
