<svg xmlns="http://www.w3.org/2000/svg" viewBox="0 0 64 64">
  <rect width="64" height="64" rx="18" fill="#4f46e5" />
  <path d="M21.5 17.5c-2.9 0-5.2 2.3-5.2 5.2 0 3.8 2 6.6 3.8 9 1.3 1.9 2.5 3.6 2.5 5.5V42c0 4.8 3.9 8.7 8.7 8.7h1.3c4.8 0 8.7-3.9 8.7-8.7v-4.8c0-1.9 1.2-3.6 2.5-5.5 1.8-2.4 3.8-5.2 3.8-9 0-2.9-2.3-5.2-5.2-5.2-2 0-3.6.8-4.9 1.6-1.6 1-2.7 1.6-5.5 1.6s-3.9-.6-5.5-1.6c-1.3-.8-2.9-1.6-4.9-1.6Z" fill="#ffffff"/>
  <path d="M28 32.7c-1.2 0-2.1.9-2.1 2.1V47c0 1.9 1.6 3.5 3.5 3.5h1.1V35.4c0-1.5-1.1-2.7-2.5-2.7Z" fill="#c7d2fe"/>
  <path d="M36 32.7c-1.4 0-2.5 1.2-2.5 2.7v15.1h1.1c1.9 0 3.5-1.6 3.5-3.5V34.8c0-1.2-.9-2.1-2.1-2.1Z" fill="#c7d2fe"/>
</svg>
